<?xml version="1.0" standalone="no"?>
<!DOCTYPE svg PUBLIC "-//W3C//DTD SVG 20010904//EN"
 "http://www.w3.org/TR/2001/REC-SVG-20010904/DTD/svg10.dtd">
<svg version="1.0" xmlns="http://www.w3.org/2000/svg"
 width="539.000000pt" height="539.000000pt" viewBox="0 0 539.000000 539.000000"
 preserveAspectRatio="xMidYMid meet">
<metadata>
Created by potrace 1.14, written by Peter Selinger 2001-2017
</metadata>
<g transform="translate(0.000000,539.000000) scale(0.100000,-0.100000)"
fill="#000000" stroke="none">
<path d="M2620 5164 c-314 -37 -557 -99 -773 -198 l-75 -34 -94 35 c-177 67
-413 119 -683 149 -193 21 -832 32 -875 14 -49 -20 -62 -58 -68 -202 -17 -425
147 -861 441 -1174 65 -68 214 -202 234 -209 1 0 -2 -19 -7 -42 -32 -139 -29
-424 6 -597 10 -53 14 -91 8 -93 -33 -11 -149 -97 -206 -153 -68 -66 -90 -109
-69 -134 7 -8 44 -24 83 -36 76 -23 138 -71 138 -107 0 -10 -22 -41 -50 -68
-84 -83 -87 -136 -11 -174 38 -20 161 -54 239 -66 l43 -7 -43 -27 c-129 -82
-131 -183 -5 -236 52 -22 186 -52 287 -65 139 -18 137 -17 145 -57 32 -172
160 -431 293 -593 122 -148 163 -175 197 -127 16 21 17 21 28 3 37 -58 112
-148 154 -186 103 -91 262 -180 298 -167 8 4 15 19 16 34 2 79 4 78 210 -123
199 -195 269 -254 300 -254 28 0 113 72 309 264 l185 181 10 -50 c13 -59 26
-64 89 -36 128 56 275 180 351 294 41 62 50 68 60 37 4 -14 15 -20 35 -20 54
0 233 222 328 407 50 98 113 266 126 335 6 32 11 38 39 42 309 47 398 70 452
117 65 57 41 134 -63 200 l-43 27 43 7 c78 12 201 46 239 66 76 38 73 91 -11
174 -28 27 -50 58 -50 68 0 35 66 85 140 108 80 24 95 38 86 76 -10 38 -129
151 -216 204 -67 41 -71 46 -66 74 2 17 12 73 21 125 22 125 16 432 -11 563
l-18 87 95 98 c189 193 313 394 395 637 64 191 77 277 78 495 1 146 -3 203
-13 228 -25 59 -41 62 -330 62 -508 0 -870 -42 -1162 -136 -63 -20 -127 -37
-144 -37 -16 0 -70 17 -119 37 -229 96 -522 155 -791 161 -93 2 -186 1 -205
-1z"/>
</g>
</svg>
